<mxfile host="app.diagrams.net" modified="2021-09-19T12:17:48.198Z" agent="5.0 (Windows)" etag="5xQXtB3j8TdG1ZzI2752" version="15.2.9" type="github">
  <diagram id="mGzwBF5CSRXXlR7XyfDy" name="Page-1">
    <mxGraphModel dx="942" dy="632" grid="1" gridSize="10" guides="1" tooltips="1" connect="1" arrows="1" fold="1" page="1" pageScale="1" pageWidth="827" pageHeight="1169" math="0" shadow="0">
      <root>
        <mxCell id="0" />
        <mxCell id="1" parent="0" />
        <mxCell id="0FwBa5QHzx8nb3g-x4m--1" value="java源代码（Java文件）" style="ellipse;whiteSpace=wrap;html=1;" vertex="1" parent="1">
          <mxGeometry x="90" y="50" width="120" height="80" as="geometry" />
        </mxCell>
        <mxCell id="0FwBa5QHzx8nb3g-x4m--2" value="Java编译器" style="rounded=0;whiteSpace=wrap;html=1;" vertex="1" parent="1">
          <mxGeometry x="80" y="230" width="120" height="40" as="geometry" />
        </mxCell>
        <mxCell id="0FwBa5QHzx8nb3g-x4m--3" value="Java字节码（.class文件）" style="ellipse;whiteSpace=wrap;html=1;" vertex="1" parent="1">
          <mxGeometry x="80" y="380" width="120" height="80" as="geometry" />
        </mxCell>
        <mxCell id="0FwBa5QHzx8nb3g-x4m--4" value="字节码本地或网络" style="ellipse;whiteSpace=wrap;html=1;" vertex="1" parent="1">
          <mxGeometry x="294" y="190" width="120" height="80" as="geometry" />
        </mxCell>
        <mxCell id="0FwBa5QHzx8nb3g-x4m--5" value="" style="endArrow=classic;html=1;exitX=0.417;exitY=0.988;exitDx=0;exitDy=0;exitPerimeter=0;" edge="1" parent="1" source="0FwBa5QHzx8nb3g-x4m--1">
          <mxGeometry width="50" height="50" relative="1" as="geometry">
            <mxPoint x="140" y="140" as="sourcePoint" />
            <mxPoint x="140" y="229" as="targetPoint" />
          </mxGeometry>
        </mxCell>
        <mxCell id="0FwBa5QHzx8nb3g-x4m--7" value="" style="endArrow=classic;html=1;entryX=0.425;entryY=0;entryDx=0;entryDy=0;entryPerimeter=0;exitX=0.5;exitY=1;exitDx=0;exitDy=0;" edge="1" parent="1" source="0FwBa5QHzx8nb3g-x4m--2" target="0FwBa5QHzx8nb3g-x4m--3">
          <mxGeometry width="50" height="50" relative="1" as="geometry">
            <mxPoint x="390" y="240" as="sourcePoint" />
            <mxPoint x="440" y="190" as="targetPoint" />
          </mxGeometry>
        </mxCell>
        <mxCell id="0FwBa5QHzx8nb3g-x4m--8" value="" style="endArrow=classic;html=1;exitX=1;exitY=0;exitDx=0;exitDy=0;entryX=0.1;entryY=0.788;entryDx=0;entryDy=0;entryPerimeter=0;" edge="1" parent="1" source="0FwBa5QHzx8nb3g-x4m--3" target="0FwBa5QHzx8nb3g-x4m--4">
          <mxGeometry width="50" height="50" relative="1" as="geometry">
            <mxPoint x="390" y="240" as="sourcePoint" />
            <mxPoint x="310" y="260" as="targetPoint" />
          </mxGeometry>
        </mxCell>
        <mxCell id="0FwBa5QHzx8nb3g-x4m--9" value="类装载器字节码的验证" style="rounded=0;whiteSpace=wrap;html=1;" vertex="1" parent="1">
          <mxGeometry x="430" y="50" width="120" height="60" as="geometry" />
        </mxCell>
        <mxCell id="0FwBa5QHzx8nb3g-x4m--10" value="" style="whiteSpace=wrap;html=1;aspect=fixed;" vertex="1" parent="1">
          <mxGeometry x="440" y="160" width="260" height="260" as="geometry" />
        </mxCell>
        <mxCell id="0FwBa5QHzx8nb3g-x4m--13" value="Java解释器" style="rounded=0;whiteSpace=wrap;html=1;" vertex="1" parent="1">
          <mxGeometry x="450" y="210" width="120" height="60" as="geometry" />
        </mxCell>
        <mxCell id="0FwBa5QHzx8nb3g-x4m--14" value="即时编译器" style="rounded=0;whiteSpace=wrap;html=1;" vertex="1" parent="1">
          <mxGeometry x="580" y="210" width="110" height="50" as="geometry" />
        </mxCell>
        <mxCell id="0FwBa5QHzx8nb3g-x4m--15" value="运行时环境" style="rounded=0;whiteSpace=wrap;html=1;" vertex="1" parent="1">
          <mxGeometry x="455" y="320" width="230" height="60" as="geometry" />
        </mxCell>
        <mxCell id="0FwBa5QHzx8nb3g-x4m--16" value="操作系统" style="rounded=0;whiteSpace=wrap;html=1;" vertex="1" parent="1">
          <mxGeometry x="450" y="460" width="240" height="40" as="geometry" />
        </mxCell>
        <mxCell id="0FwBa5QHzx8nb3g-x4m--17" value="硬件" style="rounded=0;whiteSpace=wrap;html=1;" vertex="1" parent="1">
          <mxGeometry x="450" y="540" width="250" height="60" as="geometry" />
        </mxCell>
        <mxCell id="0FwBa5QHzx8nb3g-x4m--18" value="Java类库" style="rounded=0;whiteSpace=wrap;html=1;" vertex="1" parent="1">
          <mxGeometry x="680" y="40" width="80" height="65" as="geometry" />
        </mxCell>
        <mxCell id="0FwBa5QHzx8nb3g-x4m--20" value="Java编译环境" style="text;html=1;strokeColor=none;fillColor=none;align=center;verticalAlign=middle;whiteSpace=wrap;rounded=0;" vertex="1" parent="1">
          <mxGeometry x="130" y="10" width="100" height="20" as="geometry" />
        </mxCell>
        <mxCell id="0FwBa5QHzx8nb3g-x4m--21" value="Java平台运行时环境" style="text;html=1;strokeColor=none;fillColor=none;align=center;verticalAlign=middle;whiteSpace=wrap;rounded=0;" vertex="1" parent="1">
          <mxGeometry x="540" y="10" width="150" height="20" as="geometry" />
        </mxCell>
        <mxCell id="0FwBa5QHzx8nb3g-x4m--23" value="" style="endArrow=classic;html=1;" edge="1" parent="1" target="0FwBa5QHzx8nb3g-x4m--9">
          <mxGeometry width="50" height="50" relative="1" as="geometry">
            <mxPoint x="360" y="190" as="sourcePoint" />
            <mxPoint x="440" y="280" as="targetPoint" />
          </mxGeometry>
        </mxCell>
        <mxCell id="0FwBa5QHzx8nb3g-x4m--24" value="Java虚拟机" style="text;html=1;strokeColor=none;fillColor=none;align=center;verticalAlign=middle;whiteSpace=wrap;rounded=0;" vertex="1" parent="1">
          <mxGeometry x="730" y="270" width="70" height="20" as="geometry" />
        </mxCell>
        <mxCell id="0FwBa5QHzx8nb3g-x4m--25" value="" style="endArrow=classic;html=1;exitX=0;exitY=0.75;exitDx=0;exitDy=0;entryX=1;entryY=0.5;entryDx=0;entryDy=0;" edge="1" parent="1" source="0FwBa5QHzx8nb3g-x4m--18" target="0FwBa5QHzx8nb3g-x4m--9">
          <mxGeometry width="50" height="50" relative="1" as="geometry">
            <mxPoint x="390" y="330" as="sourcePoint" />
            <mxPoint x="700" y="89" as="targetPoint" />
          </mxGeometry>
        </mxCell>
        <mxCell id="0FwBa5QHzx8nb3g-x4m--26" value="" style="endArrow=classic;html=1;entryX=0.5;entryY=0;entryDx=0;entryDy=0;exitX=0.567;exitY=1.05;exitDx=0;exitDy=0;exitPerimeter=0;" edge="1" parent="1" source="0FwBa5QHzx8nb3g-x4m--9" target="0FwBa5QHzx8nb3g-x4m--13">
          <mxGeometry width="50" height="50" relative="1" as="geometry">
            <mxPoint x="390" y="330" as="sourcePoint" />
            <mxPoint x="440" y="280" as="targetPoint" />
          </mxGeometry>
        </mxCell>
        <mxCell id="0FwBa5QHzx8nb3g-x4m--27" value="" style="endArrow=classic;html=1;entryX=0.5;entryY=0;entryDx=0;entryDy=0;" edge="1" parent="1" target="0FwBa5QHzx8nb3g-x4m--14">
          <mxGeometry width="50" height="50" relative="1" as="geometry">
            <mxPoint x="500" y="110" as="sourcePoint" />
            <mxPoint x="440" y="280" as="targetPoint" />
          </mxGeometry>
        </mxCell>
        <mxCell id="0FwBa5QHzx8nb3g-x4m--28" value="" style="endArrow=classic;html=1;exitX=0.5;exitY=1;exitDx=0;exitDy=0;" edge="1" parent="1" source="0FwBa5QHzx8nb3g-x4m--13">
          <mxGeometry width="50" height="50" relative="1" as="geometry">
            <mxPoint x="390" y="330" as="sourcePoint" />
            <mxPoint x="510" y="320" as="targetPoint" />
          </mxGeometry>
        </mxCell>
        <mxCell id="0FwBa5QHzx8nb3g-x4m--30" value="" style="endArrow=classic;html=1;exitX=0.436;exitY=1.08;exitDx=0;exitDy=0;exitPerimeter=0;entryX=0.75;entryY=0;entryDx=0;entryDy=0;" edge="1" parent="1" source="0FwBa5QHzx8nb3g-x4m--14" target="0FwBa5QHzx8nb3g-x4m--15">
          <mxGeometry width="50" height="50" relative="1" as="geometry">
            <mxPoint x="390" y="330" as="sourcePoint" />
            <mxPoint x="440" y="280" as="targetPoint" />
          </mxGeometry>
        </mxCell>
        <mxCell id="0FwBa5QHzx8nb3g-x4m--31" value="" style="endArrow=classic;html=1;" edge="1" parent="1">
          <mxGeometry width="50" height="50" relative="1" as="geometry">
            <mxPoint x="560" y="430" as="sourcePoint" />
            <mxPoint x="560" y="460" as="targetPoint" />
          </mxGeometry>
        </mxCell>
        <mxCell id="0FwBa5QHzx8nb3g-x4m--32" value="" style="endArrow=classic;html=1;exitX=0.5;exitY=1;exitDx=0;exitDy=0;entryX=0.464;entryY=0.017;entryDx=0;entryDy=0;entryPerimeter=0;" edge="1" parent="1" source="0FwBa5QHzx8nb3g-x4m--16" target="0FwBa5QHzx8nb3g-x4m--17">
          <mxGeometry width="50" height="50" relative="1" as="geometry">
            <mxPoint x="390" y="330" as="sourcePoint" />
            <mxPoint x="440" y="280" as="targetPoint" />
          </mxGeometry>
        </mxCell>
        <mxCell id="0FwBa5QHzx8nb3g-x4m--34" value="Java程序的执行过程" style="ellipse;shape=cloud;whiteSpace=wrap;html=1;" vertex="1" parent="1">
          <mxGeometry x="130" y="620" width="290" height="80" as="geometry" />
        </mxCell>
      </root>
    </mxGraphModel>
  </diagram>
</mxfile>
